<svg xmlns="http://www.w3.org/2000/svg" xmlns:xlink="http://www.w3.org/1999/xlink" id="Layer_2" data-name="Layer 2" viewBox="0 0 723.73 313.81"><defs><style>      .cls-1 {        fill: url(#linear-gradient);      }      .cls-1, .cls-2, .cls-3 {        stroke-width: 0px;      }      .cls-2 {        fill: #fff;      }      .cls-3 {        fill: #008ae8;      }    </style><linearGradient id="linear-gradient" x1="4.71" y1="194.72" x2="275.26" y2="127.27" gradientUnits="userSpaceOnUse"><stop offset="0" stop-color="#005cf3"></stop><stop offset=".57" stop-color="#00b7ea"></stop></linearGradient></defs><g id="Layer_1-2" data-name="Layer 1"><g><g><g><path class="cls-2" d="m279.38,47.46h19.51v40.56h56.56v-40.56h19.51v100.35h-19.51v-41.96h-56.56v41.96h-19.51V47.46Z"></path><path class="cls-2" d="m377.2,128.31c0-7.02,2.81-12.21,7.72-15.72,5.75-4.35,14.74-6.74,25.54-8.14,6.6-.84,16.56-1.82,24.98-2.11v-2.39c0-7.3-7.16-11.65-18.39-11.65s-17.68,4.49-18.67,10.95l-17.4-3.51c2.53-12.21,14.32-21.89,37.19-21.89,21.19,0,35.09,8.14,35.09,29.05v20.63c0,10.67.28,17.26,1.54,24.28h-17.4c-.7-3.93-.98-8.14-1.12-12.77-4.77,8.42-16.14,14.46-31.58,14.46-16.84,0-27.51-7.58-27.51-21.19Zm58.11-8.7v-6.04c-4.91.14-12.91.84-20.35,1.82-13.05,1.54-19.51,4.21-19.51,11.23,0,5.75,4.49,9.12,13.61,9.12,15.02,0,26.25-8.84,26.25-16.14Z"></path><path class="cls-2" d="m457.62,75.68h16.98v11.23c3.09-6.6,9.26-12.63,20.07-12.63,3.51,0,7.86.56,11.09,1.68l-1.12,16.28c-3.23-1.12-7.58-1.54-10.81-1.54-10.95,0-17.68,7.02-17.68,23.44v33.68h-18.53v-72.14Z"></path><path class="cls-2" d="m506.75,47.46h18.53v100.35h-18.53V47.46Z"></path><path class="cls-2" d="m526.54,111.74c0-22.04,17.54-38.03,41.68-38.03s41.4,16.14,41.4,38.17-17.54,37.75-41.54,37.75-41.54-15.86-41.54-37.89Zm64.28.14c0-13.75-9.12-23.02-22.74-23.02s-22.88,9.26-22.88,22.74,9.4,22.74,23.16,22.74,22.46-8.98,22.46-22.46Z"></path><path class="cls-2" d="m602.61,75.68h19.23l15.02,54.03h.28l16-54.03h20.35l16.28,53.89h.28l15.16-53.89h18.53l-23.16,72.14h-21.05l-16.28-52.35h-.28l-16.14,52.35h-21.05l-23.16-72.14Z"></path></g><g><path class="cls-3" d="m355.15,161.36h8.05v5.72c2.53-3.99,7.52-6.52,13.24-6.52,8.98,0,17.17,6.39,17.17,17.9s-8.18,18.03-17.17,18.03c-5.59,0-9.98-2.4-12.51-5.52v17.9h-8.78v-47.5Zm29.54,17.1c0-6.65-4.12-10.78-10.31-10.78s-10.71,3.79-10.71,10.78,4.92,10.78,10.71,10.78c6.19,0,10.31-4.12,10.31-10.78Z"></path><path class="cls-3" d="m393.2,186.31c0-3.33,1.33-5.79,3.66-7.45,2.73-2.06,6.99-3.19,12.11-3.86,3.13-.4,7.85-.86,11.84-1v-1.13c0-3.46-3.39-5.52-8.72-5.52s-8.38,2.13-8.85,5.19l-8.25-1.66c1.2-5.79,6.79-10.38,17.63-10.38,10.05,0,16.63,3.86,16.63,13.77v9.78c0,5.06.13,8.18.73,11.51h-8.25c-.33-1.86-.47-3.86-.53-6.05-2.26,3.99-7.65,6.85-14.97,6.85-7.98,0-13.04-3.59-13.04-10.05Zm27.54-4.12v-2.86c-2.33.07-6.12.4-9.65.86-6.19.73-9.25,2-9.25,5.32,0,2.73,2.13,4.32,6.45,4.32,7.12,0,12.44-4.19,12.44-7.65Z"></path><path class="cls-3" d="m428.59,208.2l1.93-6.59c1.26.73,3.06,1.2,4.99,1.2,2.66,0,4.39-1.6,5.66-4.26l2.2-4.66-15.43-32.53h9.45l10.31,22.82h.07l10.31-22.82h9.31l-18.56,38.92c-2.79,5.79-6.79,9.58-12.51,9.58-3.06,0-5.85-.67-7.72-1.66Z"></path><path class="cls-3" d="m466.78,161.36h8.05v5.12c1.93-3.19,4.99-5.99,11.44-5.99,6.05,0,9.58,2.53,11.31,6.65,2.06-3.66,5.52-6.65,12.17-6.65,9.71,0,13.17,6.25,13.17,16.03v19.03h-8.72v-18.1c0-6.19-2.13-9.51-7.05-9.51-5.46,0-7.92,4.06-7.92,10.18v17.43h-8.78v-18.36c0-4.19-1.2-9.25-6.99-9.25-6.39,0-7.92,6.19-7.92,10.51v17.1h-8.78v-34.2Z"></path><path class="cls-3" d="m523.53,178.39c0-10.71,7.72-17.9,19.29-17.9s18.69,6.92,18.69,17.96v2.39h-29.34c.46,5.06,5.19,8.65,11.38,8.65,4.46,0,7.78-1.86,8.98-4.92l7.45,2.2c-2,6.05-8.05,9.65-16.5,9.65-11.98,0-19.96-7.19-19.96-18.03Zm29.01-3.19c-.4-5.19-4.06-8.05-9.98-8.05s-9.85,3.13-10.45,8.05h20.42Z"></path><path class="cls-3" d="m562.24,161.36h8.05v4.92c2.06-3.19,5.72-5.79,12.57-5.79,10.64,0,14.84,6.12,14.84,15.97v19.09h-8.71v-17.96c0-6.52-3.06-9.65-8.52-9.65-6.39,0-9.45,3.99-9.45,11.24v16.37h-8.78v-34.2Z"></path><path class="cls-3" d="m604.95,185.91v-17.5h-8.45v-7.05h8.45v-8.85h8.65v8.85h12.11v7.05h-12.11v16.17c0,3.19,1.6,4.72,5.26,4.72,2.06,0,4.26-.67,5.92-1.4l1.26,6.45c-2.53,1.13-6.05,2.06-9.31,2.06-6.92,0-11.78-3.39-11.78-10.51Z"></path><path class="cls-3" d="m624.78,189.17l5.12-5.12c2.4,3.26,7.05,5.59,13.37,5.59,4.12,0,7.52-1,7.52-3.73,0-2.26-2.13-3.26-6.59-4.06l-6.12-1c-7.65-1.33-11.84-4.39-11.84-9.85,0-7.32,7.58-10.51,15.97-10.51s13.84,2.93,16.7,6.79l-5.32,4.46c-2.2-2.73-6.45-4.66-11.58-4.66-4.26,0-7.32,1.2-7.32,3.59,0,2.26,2.53,2.86,6.25,3.53l6.92,1.2c7.58,1.33,11.38,4.86,11.38,10.25,0,7.12-6.85,10.78-16.37,10.78-8.72,0-14.97-3.06-18.1-7.25Z"></path></g></g><path class="cls-1" d="m296.02,222.74c-1.31,0-2.38-1.07-2.38-2.38s1.07-2.38,2.38-2.38,2.38,1.07,2.38,2.38-1.07,2.38-2.38,2.38Zm-15.53,28.5c0-2.4-1.94-4.34-4.34-4.34s-4.34,1.94-4.34,4.34,1.94,4.34,4.34,4.34,4.34-1.94,4.34-4.34Zm-25.16,25.15c0-3.28-2.66-5.94-5.94-5.94s-5.94,2.66-5.94,5.94,2.66,5.94,5.94,5.94,5.94-2.66,5.94-5.94Zm-30.71,17.92c0-4.02-3.26-7.28-7.28-7.28s-7.28,3.26-7.28,7.28,3.26,7.28,7.28,7.28,7.28-3.26,7.28-7.28Zm-34.34,9.55c0-4.63-3.76-8.39-8.39-8.39s-8.39,3.76-8.39,8.39,3.76,8.39,8.39,8.39,8.39-3.76,8.39-8.39Zm-35.83.66c0-5.13-4.16-9.28-9.28-9.28s-9.28,4.16-9.28,9.28,4.16,9.28,9.28,9.28,9.28-4.16,9.28-9.28Zm-35.09-8.24c0-5.51-4.46-9.97-9.97-9.97s-9.97,4.46-9.97,9.97,4.46,9.97,9.97,9.97,9.97-4.46,9.97-9.97Zm-32.18-16.73c0-5.78-4.69-10.47-10.47-10.47s-10.47,4.69-10.47,10.47,4.69,10.47,10.47,10.47,10.47-4.69,10.47-10.47Zm-27.33-24.17c0-5.96-4.83-10.79-10.79-10.79s-10.79,4.83-10.79,10.79,4.83,10.79,10.79,10.79,10.79-4.83,10.79-10.79Zm-20.83-30.14c0-6.05-4.9-10.95-10.95-10.95s-10.95,4.9-10.95,10.95,4.9,10.95,10.95,10.95,10.95-4.9,10.95-10.95Zm-13.01-34.34c0-6.05-4.9-10.95-10.95-10.95s-10.95,4.9-10.95,10.95,4.9,10.95,10.95,10.95,10.95-4.9,10.95-10.95Zm-4.39-36.48c0-5.97-4.84-10.81-10.81-10.81s-10.81,4.84-10.81,10.81,4.84,10.81,10.81,10.81,10.81-4.84,10.81-10.81Zm4.37-36.42c0-5.8-4.7-10.5-10.5-10.5s-10.5,4.7-10.5,10.5,4.7,10.5,10.5,10.5,10.5-4.7,10.5-10.5Zm12.93-34.18c0-5.52-4.48-10-10-10s-10,4.48-10,10,4.48,10,10,10,10-4.48,10-10Zm20.65-29.88c0-5.14-4.17-9.31-9.31-9.31s-9.31,4.17-9.31,9.31,4.17,9.31,9.31,9.31,9.31-4.17,9.31-9.31Zm27.05-23.83c0-4.65-3.77-8.42-8.42-8.42s-8.42,3.77-8.42,8.42,3.77,8.42,8.42,8.42,8.42-3.77,8.42-8.42Zm31.77-16.34c0-4.04-3.27-7.31-7.31-7.31s-7.31,3.27-7.31,7.31,3.27,7.31,7.31,7.31,7.31-3.27,7.31-7.31Zm34.53-7.81c0-3.29-2.67-5.96-5.96-5.96s-5.96,2.67-5.96,5.96,2.67,5.96,5.96,5.96,5.96-2.67,5.96-5.96Zm35.11,1.1c0-2.41-1.95-4.36-4.36-4.36s-4.36,1.95-4.36,4.36,1.95,4.36,4.36,4.36,4.36-1.95,4.36-4.36Zm33.37,9.98c0-1.32-1.07-2.39-2.39-2.39s-2.39,1.07-2.39,2.39,1.07,2.39,2.39,2.39,2.39-1.07,2.39-2.39Zm5.55,240.39c0-1.68-1.37-3.05-3.05-3.05s-3.05,1.37-3.05,3.05,1.37,3.05,3.05,3.05,3.05-1.37,3.05-3.05Zm-30.02,13.93c0-2.97-2.41-5.38-5.38-5.38s-5.38,2.41-5.38,5.38,2.41,5.38,5.38,5.38,5.38-2.41,5.38-5.38Zm-33.19,3.9c0-3.98-3.22-7.2-7.2-7.2s-7.2,3.22-7.2,7.2,3.22,7.2,7.2,7.2,7.2-3.22,7.2-7.2Zm-33.22-6.37c0-4.76-3.86-8.62-8.62-8.62s-8.62,3.86-8.62,8.62,3.86,8.62,8.62,8.62,8.62-3.86,8.62-8.62Zm-30.22-16.2c0-5.34-4.33-9.67-9.67-9.67s-9.67,4.33-9.67,9.67,4.33,9.67,9.67,9.67,9.67-4.33,9.67-9.67Zm-24.5-24.57c0-5.75-4.66-10.41-10.41-10.41s-10.41,4.66-10.41,10.41,4.66,10.41,10.41,10.41,10.41-4.66,10.41-10.41Zm-16.6-30.83c0-5.99-4.86-10.85-10.85-10.85s-10.85,4.86-10.85,10.85,4.86,10.85,10.85,10.85,10.85-4.86,10.85-10.85Zm-7.16-34.45c0-6.07-4.92-11-11-11s-11,4.92-11,11,4.92,11,11,11,11-4.92,11-11Zm2.83-35.1c0-6-4.86-10.86-10.86-10.86s-10.86,4.86-10.86,10.86,4.86,10.86,10.86,10.86,10.86-4.86,10.86-10.86Zm12.62-32.72c0-5.76-4.67-10.43-10.43-10.43s-10.43,4.67-10.43,10.43,4.67,10.43,10.43,10.43,10.43-4.67,10.43-10.43Zm21.26-27.51c0-5.36-4.34-9.7-9.7-9.7s-9.7,4.34-9.7,9.7,4.34,9.7,9.7,9.7,9.7-4.34,9.7-9.7Zm27.96-19.98c0-4.78-3.87-8.65-8.65-8.65s-8.65,3.87-8.65,8.65,3.87,8.65,8.65,8.65,8.65-3.87,8.65-8.65Zm32.15-10.66c0-3.99-3.24-7.23-7.23-7.23s-7.23,3.24-7.23,7.23,3.24,7.23,7.23,7.23,7.23-3.24,7.23-7.23Zm33.4-.46c0-2.99-2.42-5.41-5.41-5.41s-5.41,2.42-5.41,5.41,2.42,5.41,5.41,5.41,5.41-2.42,5.41-5.41Zm31.5,9.76c0-1.69-1.37-3.07-3.07-3.07s-3.07,1.37-3.07,3.07,1.37,3.07,3.07,3.07,3.07-1.37,3.07-3.07Zm7.17,179.69c0-2.31-1.87-4.18-4.18-4.18s-4.18,1.87-4.18,4.18,1.87,4.18,4.18,4.18,4.18-1.87,4.18-4.18Zm-29.78,16.45c0-3.89-3.16-7.05-7.05-7.05s-7.05,3.16-7.05,7.05,3.16,7.05,7.05,7.05,7.05-3.16,7.05-7.05Zm-34.51,2.08c0-4.99-4.05-9.04-9.04-9.04s-9.04,4.05-9.04,9.04,4.05,9.04,9.04,9.04,9.04-4.05,9.04-9.04Zm-33.06-12.6c0-5.68-4.61-10.29-10.29-10.29s-10.29,4.61-10.29,10.29,4.61,10.29,10.29,10.29,10.29-4.61,10.29-10.29Zm-25.86-25.21c0-6.02-4.88-10.9-10.9-10.9s-10.9,4.88-10.9,10.9,4.88,10.9,10.9,10.9,10.9-4.88,10.9-10.9Zm-14.27-33.65c0-6.02-4.88-10.91-10.91-10.91s-10.91,4.88-10.91,10.91,4.88,10.91,10.91,10.91,10.91-4.88,10.91-10.91Zm-.31-36.56c0-5.7-4.62-10.31-10.31-10.31s-10.31,4.62-10.31,10.31,4.62,10.31,10.31,10.31,10.31-4.62,10.31-10.31Zm13.57-33.41c0-5.01-4.06-9.07-9.07-9.07s-9.07,4.06-9.07,9.07,4.06,9.07,9.07,9.07,9.07-4.06,9.07-9.07Zm24.87-24.79c0-3.91-3.17-7.08-7.08-7.08s-7.08,3.17-7.08,7.08,3.17,7.08,7.08,7.08,7.08-3.17,7.08-7.08Zm31.62-12.05c0-2.32-1.88-4.2-4.2-4.2s-4.2,1.88-4.2,4.2,1.88,4.2,4.2,4.2,4.2-1.88,4.2-4.2Zm-32.96,119.41c0-3.67-2.97-6.65-6.64-6.65s-6.65,2.98-6.65,6.65,2.98,6.64,6.65,6.64,6.64-2.97,6.64-6.64Zm-5.4-33.24c0-5.51-4.46-9.97-9.97-9.97s-9.97,4.47-9.97,9.97,4.46,9.97,9.97,9.97,9.97-4.46,9.97-9.97Zm13.34-32.09c0-6.07-4.92-11-11-11s-11,4.92-11,11,4.92,11,11,11,11-4.92,11-11Zm27.72-18.87c0-5.52-4.48-10-10-10s-10,4.48-10,10,4.48,10,10,10,10-4.48,10-10Zm31.02,1.45c0-3.69-2.99-6.67-6.67-6.67s-6.67,2.99-6.67,6.67,2.99,6.67,6.67,6.67,6.67-2.99,6.67-6.67Z"></path></g></g></svg>