<svg xmlns="http://www.w3.org/2000/svg" width="48" height="48" viewBox="0 0 48 48" fill="none">
  <!-- 4-point star / sparkle - no background -->
  <path d="M24 2 C24.5 20 24 22 24 22 C24 22 23.5 20 24 2Z" fill="url(#sg1)" opacity="0.7"/>
  <path d="M24 46 C24.5 28 24 26 24 26 C24 26 23.5 28 24 46Z" fill="url(#sg1)" opacity="0.7"/>
  <path d="M2 24 C20 24.5 22 24 22 24 C22 24 20 23.5 2 24Z" fill="url(#sg1)" opacity="0.7"/>
  <path d="M46 24 C28 24.5 26 24 26 24 C26 24 28 23.5 46 24Z" fill="url(#sg1)" opacity="0.7"/>
  <!-- Main star arms -->
  <path d="M24 4 L26 20 L24 17 L22 20 Z" fill="url(#sg2)"/>
  <path d="M24 44 L26 28 L24 31 L22 28 Z" fill="url(#sg2)"/>
  <path d="M4 24 L20 22 L17 24 L20 26 Z" fill="url(#sg2)"/>
  <path d="M44 24 L28 22 L31 24 L28 26 Z" fill="url(#sg2)"/>
  <!-- Diagonal sparkle lines -->
  <line x1="9" y1="9" x2="18" y2="18" stroke="url(#sg3)" stroke-width="1.5" stroke-linecap="round" opacity="0.4"/>
  <line x1="39" y1="9" x2="30" y2="18" stroke="url(#sg3)" stroke-width="1.5" stroke-linecap="round" opacity="0.4"/>
  <line x1="9" y1="39" x2="18" y2="30" stroke="url(#sg3)" stroke-width="1.5" stroke-linecap="round" opacity="0.4"/>
  <line x1="39" y1="39" x2="30" y2="30" stroke="url(#sg3)" stroke-width="1.5" stroke-linecap="round" opacity="0.4"/>
  <!-- Center glow -->
  <circle cx="24" cy="24" r="5" fill="url(#sg4)" opacity="0.3"/>
  <circle cx="24" cy="24" r="3" fill="url(#sg5)"/>
  <circle cx="24" cy="24" r="1.5" fill="#FDE68A"/>
  <defs>
    <linearGradient id="sg1" x1="0" y1="0" x2="1" y2="1">
      <stop offset="0%" stop-color="#FBBF24" stop-opacity="0.6"/>
      <stop offset="100%" stop-color="#F59E0B"/>
    </linearGradient>
    <linearGradient id="sg2" x1="0" y1="0" x2="0" y2="1">
      <stop offset="0%" stop-color="#FDE68A"/>
      <stop offset="50%" stop-color="#FBBF24"/>
      <stop offset="100%" stop-color="#D97706"/>
    </linearGradient>
    <linearGradient id="sg3" x1="0" y1="0" x2="1" y2="1">
      <stop offset="0%" stop-color="#FBBF24"/>
      <stop offset="100%" stop-color="#D97706" stop-opacity="0"/>
    </linearGradient>
    <radialGradient id="sg4" cx="50%" cy="50%">
      <stop offset="0%" stop-color="#FBBF24"/>
      <stop offset="100%" stop-color="#F59E0B" stop-opacity="0"/>
    </radialGradient>
    <radialGradient id="sg5" cx="50%" cy="50%">
      <stop offset="0%" stop-color="#FEF3C7"/>
      <stop offset="60%" stop-color="#FBBF24"/>
      <stop offset="100%" stop-color="#F59E0B"/>
    </radialGradient>
  </defs>
</svg>
